<mxfile host="app.diagrams.net" agent="Mozilla/5.0 (Macintosh; Intel Mac OS X 10_15_7) AppleWebKit/537.36 (KHTML, like Gecko) Chrome/129.0.0.0 Safari/537.36" version="24.7.16">
  <diagram name="Page-1" id="NzpP9i2TKMvt96Eljstn">
    <mxGraphModel dx="2901" dy="1180" grid="1" gridSize="10" guides="1" tooltips="1" connect="1" arrows="1" fold="1" page="1" pageScale="1" pageWidth="827" pageHeight="1169" math="0" shadow="0">
      <root>
        <mxCell id="0" />
        <mxCell id="1" parent="0" />
        <mxCell id="4glLAtaTAABjFDv6GbT7-25" value="task.create-in-transaction.user" style="swimlane;fontStyle=0;childLayout=stackLayout;horizontal=1;startSize=30;fillColor=none;horizontalStack=0;resizeParent=1;resizeParentMax=0;resizeLast=0;collapsible=1;marginBottom=0;whiteSpace=wrap;html=1;" parent="1" vertex="1">
          <mxGeometry x="-70" y="600" width="140" height="186" as="geometry" />
        </mxCell>
        <mxCell id="4glLAtaTAABjFDv6GbT7-26" value="+ id: ObjectId" style="text;strokeColor=none;fillColor=none;align=left;verticalAlign=top;spacingLeft=4;spacingRight=4;overflow=hidden;rotatable=0;points=[[0,0.5],[1,0.5]];portConstraint=eastwest;whiteSpace=wrap;html=1;" parent="4glLAtaTAABjFDv6GbT7-25" vertex="1">
          <mxGeometry y="30" width="140" height="26" as="geometry" />
        </mxCell>
        <mxCell id="4glLAtaTAABjFDv6GbT7-27" value="+ firstname: String" style="text;strokeColor=none;fillColor=none;align=left;verticalAlign=top;spacingLeft=4;spacingRight=4;overflow=hidden;rotatable=0;points=[[0,0.5],[1,0.5]];portConstraint=eastwest;whiteSpace=wrap;html=1;" parent="4glLAtaTAABjFDv6GbT7-25" vertex="1">
          <mxGeometry y="56" width="140" height="26" as="geometry" />
        </mxCell>
        <mxCell id="4glLAtaTAABjFDv6GbT7-28" value="+ lastname: String" style="text;strokeColor=none;fillColor=none;align=left;verticalAlign=top;spacingLeft=4;spacingRight=4;overflow=hidden;rotatable=0;points=[[0,0.5],[1,0.5]];portConstraint=eastwest;whiteSpace=wrap;html=1;" parent="4glLAtaTAABjFDv6GbT7-25" vertex="1">
          <mxGeometry y="82" width="140" height="26" as="geometry" />
        </mxCell>
        <mxCell id="4glLAtaTAABjFDv6GbT7-119" value="+ email: String" style="text;strokeColor=none;fillColor=none;align=left;verticalAlign=top;spacingLeft=4;spacingRight=4;overflow=hidden;rotatable=0;points=[[0,0.5],[1,0.5]];portConstraint=eastwest;whiteSpace=wrap;html=1;" parent="4glLAtaTAABjFDv6GbT7-25" vertex="1">
          <mxGeometry y="108" width="140" height="26" as="geometry" />
        </mxCell>
        <mxCell id="4glLAtaTAABjFDv6GbT7-120" value="+ username: String" style="text;strokeColor=none;fillColor=none;align=left;verticalAlign=top;spacingLeft=4;spacingRight=4;overflow=hidden;rotatable=0;points=[[0,0.5],[1,0.5]];portConstraint=eastwest;whiteSpace=wrap;html=1;" parent="4glLAtaTAABjFDv6GbT7-25" vertex="1">
          <mxGeometry y="134" width="140" height="26" as="geometry" />
        </mxCell>
        <mxCell id="4glLAtaTAABjFDv6GbT7-121" value="+ password: String" style="text;strokeColor=none;fillColor=none;align=left;verticalAlign=top;spacingLeft=4;spacingRight=4;overflow=hidden;rotatable=0;points=[[0,0.5],[1,0.5]];portConstraint=eastwest;whiteSpace=wrap;html=1;" parent="4glLAtaTAABjFDv6GbT7-25" vertex="1">
          <mxGeometry y="160" width="140" height="26" as="geometry" />
        </mxCell>
        <mxCell id="4glLAtaTAABjFDv6GbT7-57" value="task.direct.exchange" style="shape=hexagon;perimeter=hexagonPerimeter2;whiteSpace=wrap;html=1;fixedSize=1;" parent="1" vertex="1">
          <mxGeometry x="200" y="930" width="120" height="80" as="geometry" />
        </mxCell>
        <mxCell id="4glLAtaTAABjFDv6GbT7-58" value="event.direct.exchange" style="shape=hexagon;perimeter=hexagonPerimeter2;whiteSpace=wrap;html=1;fixedSize=1;" parent="1" vertex="1">
          <mxGeometry x="1110" y="1430" width="120" height="80" as="geometry" />
        </mxCell>
        <mxCell id="4glLAtaTAABjFDv6GbT7-59" value="queue.user.creation" style="shape=parallelogram;perimeter=parallelogramPerimeter;whiteSpace=wrap;html=1;fixedSize=1;" parent="1" vertex="1">
          <mxGeometry x="650" y="840" width="120" height="60" as="geometry" />
        </mxCell>
        <mxCell id="4glLAtaTAABjFDv6GbT7-60" value="" style="endArrow=classic;html=1;rounded=0;" parent="1" source="4glLAtaTAABjFDv6GbT7-57" target="4glLAtaTAABjFDv6GbT7-59" edge="1">
          <mxGeometry relative="1" as="geometry">
            <mxPoint x="410" y="950" as="sourcePoint" />
            <mxPoint x="610" y="950" as="targetPoint" />
          </mxGeometry>
        </mxCell>
        <mxCell id="4glLAtaTAABjFDv6GbT7-61" value="task.create.user" style="edgeLabel;resizable=0;html=1;;align=center;verticalAlign=middle;" parent="4glLAtaTAABjFDv6GbT7-60" connectable="0" vertex="1">
          <mxGeometry relative="1" as="geometry" />
        </mxCell>
        <mxCell id="4glLAtaTAABjFDv6GbT7-62" value="" style="endArrow=classic;html=1;rounded=0;" parent="1" source="4glLAtaTAABjFDv6GbT7-57" target="4glLAtaTAABjFDv6GbT7-64" edge="1">
          <mxGeometry relative="1" as="geometry">
            <mxPoint x="360" y="1076" as="sourcePoint" />
            <mxPoint x="550" y="1050" as="targetPoint" />
          </mxGeometry>
        </mxCell>
        <mxCell id="4glLAtaTAABjFDv6GbT7-63" value="task.delete.user" style="edgeLabel;resizable=0;html=1;;align=center;verticalAlign=middle;" parent="4glLAtaTAABjFDv6GbT7-62" connectable="0" vertex="1">
          <mxGeometry relative="1" as="geometry" />
        </mxCell>
        <mxCell id="4glLAtaTAABjFDv6GbT7-64" value="queue.user.deletion" style="shape=parallelogram;perimeter=parallelogramPerimeter;whiteSpace=wrap;html=1;fixedSize=1;" parent="1" vertex="1">
          <mxGeometry x="650" y="980" width="120" height="60" as="geometry" />
        </mxCell>
        <mxCell id="4glLAtaTAABjFDv6GbT7-65" value="queue.user-auth.creation" style="shape=parallelogram;perimeter=parallelogramPerimeter;whiteSpace=wrap;html=1;fixedSize=1;" parent="1" vertex="1">
          <mxGeometry x="640" y="1120" width="120" height="60" as="geometry" />
        </mxCell>
        <mxCell id="4glLAtaTAABjFDv6GbT7-66" value="" style="endArrow=classic;html=1;rounded=0;" parent="1" source="4glLAtaTAABjFDv6GbT7-57" target="4glLAtaTAABjFDv6GbT7-65" edge="1">
          <mxGeometry relative="1" as="geometry">
            <mxPoint x="280" y="1060" as="sourcePoint" />
            <mxPoint x="626" y="1106" as="targetPoint" />
          </mxGeometry>
        </mxCell>
        <mxCell id="4glLAtaTAABjFDv6GbT7-67" value="task.create.user-auth" style="edgeLabel;resizable=0;html=1;;align=center;verticalAlign=middle;" parent="4glLAtaTAABjFDv6GbT7-66" connectable="0" vertex="1">
          <mxGeometry relative="1" as="geometry" />
        </mxCell>
        <mxCell id="4glLAtaTAABjFDv6GbT7-68" value="" style="endArrow=classic;html=1;rounded=0;" parent="1" source="4glLAtaTAABjFDv6GbT7-58" target="4glLAtaTAABjFDv6GbT7-70" edge="1">
          <mxGeometry relative="1" as="geometry">
            <mxPoint x="390" y="1396" as="sourcePoint" />
            <mxPoint x="620" y="1290" as="targetPoint" />
          </mxGeometry>
        </mxCell>
        <mxCell id="4glLAtaTAABjFDv6GbT7-69" value="even.user-auth.creation.fail" style="edgeLabel;resizable=0;html=1;;align=center;verticalAlign=middle;" parent="4glLAtaTAABjFDv6GbT7-68" connectable="0" vertex="1">
          <mxGeometry relative="1" as="geometry" />
        </mxCell>
        <mxCell id="4glLAtaTAABjFDv6GbT7-70" value="queue.user.creation-compensation" style="shape=parallelogram;perimeter=parallelogramPerimeter;whiteSpace=wrap;html=1;fixedSize=1;" parent="1" vertex="1">
          <mxGeometry x="630" y="1360" width="120" height="60" as="geometry" />
        </mxCell>
        <mxCell id="4glLAtaTAABjFDv6GbT7-78" value="Orchestrator-Service" style="shape=umlLifeline;perimeter=lifelinePerimeter;whiteSpace=wrap;html=1;container=1;dropTarget=0;collapsible=0;recursiveResize=0;outlineConnect=0;portConstraint=eastwest;newEdgeStyle={&quot;curved&quot;:0,&quot;rounded&quot;:0};" parent="1" vertex="1">
          <mxGeometry x="40" y="1810" width="100" height="300" as="geometry" />
        </mxCell>
        <mxCell id="4glLAtaTAABjFDv6GbT7-79" value="" style="html=1;perimeter=orthogonalPerimeter;outlineConnect=0;targetShapes=umlLifeline;portConstraint=eastwest;newEdgeStyle={&quot;curved&quot;:0,&quot;rounded&quot;:0};points=[[0,0,0,0,0],[0,0.25,0,0,0],[0,0.5,0,0,0],[0,0.75,0,0,0],[0,1,0,0,0],[0.25,0,0,0,0],[0.25,1,0,0,0],[0.5,0,0,0,0],[0.5,1,0,0,0],[0.75,0,0,0,0],[0.75,1,0,0,0],[1,0,0,0,0],[1,0.25,0,0,0],[1,0.5,0,0,0],[1,0.75,0,0,0],[1,1,0,0,0]];" parent="4glLAtaTAABjFDv6GbT7-78" vertex="1">
          <mxGeometry x="45" y="90" width="10" height="60" as="geometry" />
        </mxCell>
        <mxCell id="4glLAtaTAABjFDv6GbT7-151" value="" style="html=1;perimeter=orthogonalPerimeter;outlineConnect=0;targetShapes=umlLifeline;portConstraint=eastwest;newEdgeStyle={&quot;curved&quot;:0,&quot;rounded&quot;:0};points=[[0,0,0,0,0],[0,0.25,0,0,0],[0,0.5,0,0,0],[0,0.75,0,0,0],[0,1,0,0,0],[0.25,0,0,0,0],[0.25,1,0,0,0],[0.5,0,0,0,0],[0.5,1,0,0,0],[0.75,0,0,0,0],[0.75,1,0,0,0],[1,0,0,0,0],[1,0.25,0,0,0],[1,0.5,0,0,0],[1,0.75,0,0,0],[1,1,0,0,0]];" parent="4glLAtaTAABjFDv6GbT7-78" vertex="1">
          <mxGeometry x="45" y="170" width="10" height="100" as="geometry" />
        </mxCell>
        <mxCell id="4glLAtaTAABjFDv6GbT7-83" value="Client" style="shape=umlLifeline;perimeter=lifelinePerimeter;whiteSpace=wrap;html=1;container=1;dropTarget=0;collapsible=0;recursiveResize=0;outlineConnect=0;portConstraint=eastwest;newEdgeStyle={&quot;curved&quot;:0,&quot;rounded&quot;:0};" parent="1" vertex="1">
          <mxGeometry x="-220" y="1810" width="100" height="300" as="geometry" />
        </mxCell>
        <mxCell id="4glLAtaTAABjFDv6GbT7-84" value="" style="html=1;perimeter=orthogonalPerimeter;outlineConnect=0;targetShapes=umlLifeline;portConstraint=eastwest;newEdgeStyle={&quot;curved&quot;:0,&quot;rounded&quot;:0};" parent="4glLAtaTAABjFDv6GbT7-83" vertex="1">
          <mxGeometry x="45" y="90" width="10" height="20" as="geometry" />
        </mxCell>
        <mxCell id="4glLAtaTAABjFDv6GbT7-85" value="User-Service" style="ellipse;whiteSpace=wrap;html=1;" parent="1" vertex="1">
          <mxGeometry x="1110" y="890" width="120" height="80" as="geometry" />
        </mxCell>
        <mxCell id="4glLAtaTAABjFDv6GbT7-86" value="" style="endArrow=classic;html=1;rounded=0;" parent="1" source="4glLAtaTAABjFDv6GbT7-59" target="4glLAtaTAABjFDv6GbT7-85" edge="1">
          <mxGeometry width="50" height="50" relative="1" as="geometry">
            <mxPoint x="870" y="750" as="sourcePoint" />
            <mxPoint x="1061" y="809" as="targetPoint" />
          </mxGeometry>
        </mxCell>
        <mxCell id="4glLAtaTAABjFDv6GbT7-87" value="" style="endArrow=classic;html=1;rounded=0;" parent="1" source="4glLAtaTAABjFDv6GbT7-64" target="4glLAtaTAABjFDv6GbT7-85" edge="1">
          <mxGeometry width="50" height="50" relative="1" as="geometry">
            <mxPoint x="850" y="1090" as="sourcePoint" />
            <mxPoint x="1036" y="1152" as="targetPoint" />
          </mxGeometry>
        </mxCell>
        <mxCell id="4glLAtaTAABjFDv6GbT7-88" value="Auth-Service" style="ellipse;whiteSpace=wrap;html=1;" parent="1" vertex="1">
          <mxGeometry x="890" y="1110" width="120" height="80" as="geometry" />
        </mxCell>
        <mxCell id="4glLAtaTAABjFDv6GbT7-89" value="" style="endArrow=classic;html=1;rounded=0;" parent="1" source="4glLAtaTAABjFDv6GbT7-65" target="4glLAtaTAABjFDv6GbT7-88" edge="1">
          <mxGeometry width="50" height="50" relative="1" as="geometry">
            <mxPoint x="827" y="1080" as="sourcePoint" />
            <mxPoint x="1016" y="1030" as="targetPoint" />
          </mxGeometry>
        </mxCell>
        <mxCell id="4glLAtaTAABjFDv6GbT7-91" value="Orchestrator-Service" style="ellipse;whiteSpace=wrap;html=1;" parent="1" vertex="1">
          <mxGeometry x="293" y="1270" width="120" height="80" as="geometry" />
        </mxCell>
        <mxCell id="4glLAtaTAABjFDv6GbT7-92" value="" style="endArrow=classic;html=1;rounded=0;" parent="1" source="4glLAtaTAABjFDv6GbT7-70" target="4glLAtaTAABjFDv6GbT7-91" edge="1">
          <mxGeometry width="50" height="50" relative="1" as="geometry">
            <mxPoint x="760" y="1160" as="sourcePoint" />
            <mxPoint x="970" y="1160" as="targetPoint" />
          </mxGeometry>
        </mxCell>
        <mxCell id="4glLAtaTAABjFDv6GbT7-93" value="" style="endArrow=classic;html=1;rounded=0;" parent="1" source="4glLAtaTAABjFDv6GbT7-91" target="4glLAtaTAABjFDv6GbT7-57" edge="1">
          <mxGeometry width="50" height="50" relative="1" as="geometry">
            <mxPoint x="676" y="1461" as="sourcePoint" />
            <mxPoint x="413" y="1342" as="targetPoint" />
          </mxGeometry>
        </mxCell>
        <mxCell id="4glLAtaTAABjFDv6GbT7-100" value="" style="endArrow=classic;html=1;rounded=0;fillColor=#f8cecc;strokeColor=#b85450;" parent="1" source="4glLAtaTAABjFDv6GbT7-88" target="4glLAtaTAABjFDv6GbT7-58" edge="1">
          <mxGeometry relative="1" as="geometry">
            <mxPoint x="1080" y="1350" as="sourcePoint" />
            <mxPoint x="730" y="1350" as="targetPoint" />
          </mxGeometry>
        </mxCell>
        <mxCell id="4glLAtaTAABjFDv6GbT7-101" value="event.user-auth.creation.fail" style="edgeLabel;resizable=0;html=1;;align=center;verticalAlign=middle;" parent="4glLAtaTAABjFDv6GbT7-100" connectable="0" vertex="1">
          <mxGeometry relative="1" as="geometry" />
        </mxCell>
        <mxCell id="4glLAtaTAABjFDv6GbT7-102" value="" style="endArrow=classic;html=1;rounded=0;fillColor=#d5e8d4;strokeColor=#82b366;" parent="1" source="4glLAtaTAABjFDv6GbT7-85" target="4glLAtaTAABjFDv6GbT7-58" edge="1">
          <mxGeometry relative="1" as="geometry">
            <mxPoint x="985" y="1196" as="sourcePoint" />
            <mxPoint x="1153" y="1440" as="targetPoint" />
          </mxGeometry>
        </mxCell>
        <mxCell id="4glLAtaTAABjFDv6GbT7-103" value="event.user.creation.success" style="edgeLabel;resizable=0;html=1;;align=center;verticalAlign=middle;" parent="4glLAtaTAABjFDv6GbT7-102" connectable="0" vertex="1">
          <mxGeometry relative="1" as="geometry" />
        </mxCell>
        <mxCell id="4glLAtaTAABjFDv6GbT7-104" value="queue.auth-user.initiate-creation" style="shape=parallelogram;perimeter=parallelogramPerimeter;whiteSpace=wrap;html=1;fixedSize=1;" parent="1" vertex="1">
          <mxGeometry x="610" y="1600" width="120" height="60" as="geometry" />
        </mxCell>
        <mxCell id="4glLAtaTAABjFDv6GbT7-106" value="" style="endArrow=classic;html=1;rounded=0;fillColor=#d5e8d4;strokeColor=#000000;" parent="1" source="4glLAtaTAABjFDv6GbT7-58" target="4glLAtaTAABjFDv6GbT7-104" edge="1">
          <mxGeometry relative="1" as="geometry">
            <mxPoint x="1180" y="980" as="sourcePoint" />
            <mxPoint x="1180" y="1440" as="targetPoint" />
          </mxGeometry>
        </mxCell>
        <mxCell id="4glLAtaTAABjFDv6GbT7-107" value="even.user.creation.success" style="edgeLabel;resizable=0;html=1;;align=center;verticalAlign=middle;" parent="4glLAtaTAABjFDv6GbT7-106" connectable="0" vertex="1">
          <mxGeometry relative="1" as="geometry" />
        </mxCell>
        <mxCell id="4glLAtaTAABjFDv6GbT7-108" value="" style="endArrow=classic;html=1;rounded=0;" parent="1" source="4glLAtaTAABjFDv6GbT7-104" target="4glLAtaTAABjFDv6GbT7-91" edge="1">
          <mxGeometry width="50" height="50" relative="1" as="geometry">
            <mxPoint x="673" y="1390" as="sourcePoint" />
            <mxPoint x="420" y="1333" as="targetPoint" />
          </mxGeometry>
        </mxCell>
        <mxCell id="4glLAtaTAABjFDv6GbT7-109" value="" style="endArrow=classic;html=1;rounded=0;" parent="1" source="4glLAtaTAABjFDv6GbT7-57" target="4glLAtaTAABjFDv6GbT7-111" edge="1">
          <mxGeometry relative="1" as="geometry">
            <mxPoint x="-30" y="1496" as="sourcePoint" />
            <mxPoint x="70" y="1340" as="targetPoint" />
          </mxGeometry>
        </mxCell>
        <mxCell id="4glLAtaTAABjFDv6GbT7-110" value="task.create-in-transaction.user" style="edgeLabel;resizable=0;html=1;;align=center;verticalAlign=middle;" parent="4glLAtaTAABjFDv6GbT7-109" connectable="0" vertex="1">
          <mxGeometry relative="1" as="geometry" />
        </mxCell>
        <mxCell id="4glLAtaTAABjFDv6GbT7-111" value="queue.user.transactional-creation" style="shape=parallelogram;perimeter=parallelogramPerimeter;whiteSpace=wrap;html=1;fixedSize=1;" parent="1" vertex="1">
          <mxGeometry x="-60" y="1130" width="120" height="60" as="geometry" />
        </mxCell>
        <mxCell id="4glLAtaTAABjFDv6GbT7-112" value="" style="endArrow=classic;html=1;rounded=0;" parent="1" source="4glLAtaTAABjFDv6GbT7-111" target="4glLAtaTAABjFDv6GbT7-91" edge="1">
          <mxGeometry width="50" height="50" relative="1" as="geometry">
            <mxPoint x="352" y="1281" as="sourcePoint" />
            <mxPoint x="281" y="1020" as="targetPoint" />
          </mxGeometry>
        </mxCell>
        <mxCell id="4glLAtaTAABjFDv6GbT7-114" value="Client" style="ellipse;whiteSpace=wrap;html=1;" parent="1" vertex="1">
          <mxGeometry x="-320" y="930" width="120" height="80" as="geometry" />
        </mxCell>
        <mxCell id="4glLAtaTAABjFDv6GbT7-115" value="" style="endArrow=classic;html=1;rounded=0;fillColor=#dae8fc;strokeColor=#6c8ebf;" parent="1" source="4glLAtaTAABjFDv6GbT7-114" target="4glLAtaTAABjFDv6GbT7-57" edge="1">
          <mxGeometry relative="1" as="geometry">
            <mxPoint x="226" y="1012" as="sourcePoint" />
            <mxPoint x="51" y="1140" as="targetPoint" />
          </mxGeometry>
        </mxCell>
        <mxCell id="4glLAtaTAABjFDv6GbT7-116" value="task.create-in-transaction.user" style="edgeLabel;resizable=0;html=1;;align=center;verticalAlign=middle;" parent="4glLAtaTAABjFDv6GbT7-115" connectable="0" vertex="1">
          <mxGeometry relative="1" as="geometry" />
        </mxCell>
        <mxCell id="4glLAtaTAABjFDv6GbT7-122" value="Two-node-sequential-orchestrator-saga" style="text;strokeColor=none;fillColor=none;html=1;fontSize=24;fontStyle=1;verticalAlign=middle;align=center;" parent="1" vertex="1">
          <mxGeometry x="700" y="220" width="100" height="40" as="geometry" />
        </mxCell>
        <mxCell id="4glLAtaTAABjFDv6GbT7-123" value="&lt;h1 style=&quot;margin-top: 0px;&quot;&gt;Naming covention&lt;/h1&gt;&lt;p&gt;&lt;/p&gt;&lt;ul&gt;&lt;li&gt;partition-key - task.[action].[entity-name] / event.[entity-name].[action].[result]&lt;/li&gt;&lt;li&gt;exchange - [task / event].[type].exchange&lt;/li&gt;&lt;li&gt;queue - queue.[entity-name].[action]&lt;/li&gt;&lt;/ul&gt;&lt;div&gt;Tasks represent actions, which change the state of services.&lt;/div&gt;&lt;div&gt;Events represent results of actions to which other services can react.&lt;/div&gt;&lt;div&gt;Action name in partition keys represent what the message is used for.&lt;/div&gt;&lt;div&gt;Action name in queues represent what consumer should do with the message.&lt;/div&gt;&lt;div&gt;Entity names are used to show which services should consume messages.&lt;/div&gt;&lt;p&gt;&lt;/p&gt;" style="text;html=1;whiteSpace=wrap;overflow=hidden;rounded=0;" parent="1" vertex="1">
          <mxGeometry y="290" width="460" height="190" as="geometry" />
        </mxCell>
        <mxCell id="4glLAtaTAABjFDv6GbT7-125" value="&lt;h1 style=&quot;margin-top: 0px;&quot;&gt;Note&lt;/h1&gt;&lt;p&gt;This event.direct.exchange is a very simple example of event notification pattern, where events are created in decoupled way and any consumer can inspect them and react.&lt;/p&gt;" style="text;html=1;whiteSpace=wrap;overflow=hidden;rounded=0;" parent="1" vertex="1">
          <mxGeometry x="1100" y="1530" width="180" height="140" as="geometry" />
        </mxCell>
        <mxCell id="4glLAtaTAABjFDv6GbT7-126" value="Happy Path" style="text;strokeColor=none;fillColor=none;html=1;fontSize=24;fontStyle=1;verticalAlign=middle;align=center;" parent="1" vertex="1">
          <mxGeometry x="180" y="1734" width="100" height="40" as="geometry" />
        </mxCell>
        <mxCell id="4glLAtaTAABjFDv6GbT7-127" value="task.create-in-transaction.user" style="html=1;verticalAlign=bottom;endArrow=block;curved=0;rounded=0;entryX=0;entryY=0;entryDx=0;entryDy=0;entryPerimeter=0;exitX=1;exitY=0;exitDx=0;exitDy=0;" parent="1" source="4glLAtaTAABjFDv6GbT7-84" target="4glLAtaTAABjFDv6GbT7-79" edge="1">
          <mxGeometry width="80" relative="1" as="geometry">
            <mxPoint x="-250" y="1900" as="sourcePoint" />
            <mxPoint x="80" y="1900" as="targetPoint" />
          </mxGeometry>
        </mxCell>
        <mxCell id="4glLAtaTAABjFDv6GbT7-133" value="task.create.user" style="html=1;verticalAlign=bottom;endArrow=block;curved=0;rounded=0;entryX=0;entryY=0;entryDx=0;entryDy=0;entryPerimeter=0;" parent="1" source="4glLAtaTAABjFDv6GbT7-79" target="4glLAtaTAABjFDv6GbT7-135" edge="1">
          <mxGeometry width="80" relative="1" as="geometry">
            <mxPoint x="140" y="1920" as="sourcePoint" />
            <mxPoint x="280" y="1920" as="targetPoint" />
          </mxGeometry>
        </mxCell>
        <mxCell id="4glLAtaTAABjFDv6GbT7-134" value="User-Service" style="shape=umlLifeline;perimeter=lifelinePerimeter;whiteSpace=wrap;html=1;container=1;dropTarget=0;collapsible=0;recursiveResize=0;outlineConnect=0;portConstraint=eastwest;newEdgeStyle={&quot;curved&quot;:0,&quot;rounded&quot;:0};" parent="1" vertex="1">
          <mxGeometry x="303" y="1810" width="100" height="300" as="geometry" />
        </mxCell>
        <mxCell id="4glLAtaTAABjFDv6GbT7-135" value="" style="html=1;perimeter=orthogonalPerimeter;outlineConnect=0;targetShapes=umlLifeline;portConstraint=eastwest;newEdgeStyle={&quot;curved&quot;:0,&quot;rounded&quot;:0};points=[[0,0,0,0,0],[0,0.25,0,0,0],[0,0.5,0,0,0],[0,0.75,0,0,0],[0,1,0,0,0],[0.25,0,0,0,0],[0.25,1,0,0,0],[0.5,0,0,0,0],[0.5,1,0,0,0],[0.75,0,0,0,0],[0.75,1,0,0,0],[1,0,0,0,0],[1,0.25,0,0,0],[1,0.5,0,0,0],[1,0.75,0,0,0],[1,1,0,0,0]];" parent="4glLAtaTAABjFDv6GbT7-134" vertex="1">
          <mxGeometry x="45" y="110" width="10" height="100" as="geometry" />
        </mxCell>
        <mxCell id="4glLAtaTAABjFDv6GbT7-142" value="publish.broker.ack" style="html=1;verticalAlign=bottom;endArrow=open;dashed=1;endSize=8;curved=0;rounded=0;entryX=1;entryY=1;entryDx=0;entryDy=0;" parent="1" target="4glLAtaTAABjFDv6GbT7-84" edge="1">
          <mxGeometry relative="1" as="geometry">
            <mxPoint x="-60" y="1920" as="sourcePoint" />
            <mxPoint x="-280" y="1920" as="targetPoint" />
          </mxGeometry>
        </mxCell>
        <mxCell id="4glLAtaTAABjFDv6GbT7-143" value="consume.broker.ack" style="html=1;verticalAlign=bottom;endArrow=open;dashed=1;endSize=8;curved=0;rounded=0;exitX=0;exitY=1;exitDx=0;exitDy=0;exitPerimeter=0;" parent="1" source="4glLAtaTAABjFDv6GbT7-79" edge="1">
          <mxGeometry relative="1" as="geometry">
            <mxPoint x="90" y="1940" as="sourcePoint" />
            <mxPoint x="-20" y="1960" as="targetPoint" />
          </mxGeometry>
        </mxCell>
        <mxCell id="4glLAtaTAABjFDv6GbT7-146" value="consume.broker.ack" style="html=1;verticalAlign=bottom;endArrow=open;dashed=1;endSize=8;curved=0;rounded=0;" parent="1" source="4glLAtaTAABjFDv6GbT7-135" edge="1">
          <mxGeometry relative="1" as="geometry">
            <mxPoint x="385" y="2020" as="sourcePoint" />
            <mxPoint x="240" y="2020" as="targetPoint" />
          </mxGeometry>
        </mxCell>
        <mxCell id="4glLAtaTAABjFDv6GbT7-147" value="Local Transaction&lt;div&gt;Succeeds&lt;/div&gt;" style="shape=note;size=20;whiteSpace=wrap;html=1;" parent="1" vertex="1">
          <mxGeometry x="410" y="1920" width="80" height="50" as="geometry" />
        </mxCell>
        <mxCell id="4glLAtaTAABjFDv6GbT7-149" value="" style="endArrow=none;dashed=1;html=1;dashPattern=1 3;strokeWidth=2;rounded=0;" parent="1" source="4glLAtaTAABjFDv6GbT7-135" target="4glLAtaTAABjFDv6GbT7-147" edge="1">
          <mxGeometry width="50" height="50" relative="1" as="geometry">
            <mxPoint x="510" y="2100" as="sourcePoint" />
            <mxPoint x="560" y="2050" as="targetPoint" />
          </mxGeometry>
        </mxCell>
        <mxCell id="4glLAtaTAABjFDv6GbT7-150" value="event.user.creation.success" style="html=1;verticalAlign=bottom;endArrow=block;curved=0;rounded=0;entryX=1;entryY=0;entryDx=0;entryDy=0;entryPerimeter=0;" parent="1" source="4glLAtaTAABjFDv6GbT7-135" target="4glLAtaTAABjFDv6GbT7-151" edge="1">
          <mxGeometry width="80" relative="1" as="geometry">
            <mxPoint x="170" y="2010" as="sourcePoint" />
            <mxPoint x="350" y="2010" as="targetPoint" />
          </mxGeometry>
        </mxCell>
        <mxCell id="4glLAtaTAABjFDv6GbT7-153" value="Auth-Service" style="shape=umlLifeline;perimeter=lifelinePerimeter;whiteSpace=wrap;html=1;container=1;dropTarget=0;collapsible=0;recursiveResize=0;outlineConnect=0;portConstraint=eastwest;newEdgeStyle={&quot;curved&quot;:0,&quot;rounded&quot;:0};" parent="1" vertex="1">
          <mxGeometry x="560" y="1810" width="100" height="410" as="geometry" />
        </mxCell>
        <mxCell id="4glLAtaTAABjFDv6GbT7-154" value="" style="html=1;perimeter=orthogonalPerimeter;outlineConnect=0;targetShapes=umlLifeline;portConstraint=eastwest;newEdgeStyle={&quot;curved&quot;:0,&quot;rounded&quot;:0};points=[[0,0,0,0,0],[0,0.25,0,0,0],[0,0.5,0,0,0],[0,0.75,0,0,0],[0,1,0,0,0],[0.25,0,0,0,0],[0.25,1,0,0,0],[0.5,0,0,0,0],[0.5,1,0,0,0],[0.75,0,0,0,0],[0.75,1,0,0,0],[1,0,0,0,0],[1,0.25,0,0,0],[1,0.5,0,0,0],[1,0.75,0,0,0],[1,1,0,0,0]];" parent="4glLAtaTAABjFDv6GbT7-153" vertex="1">
          <mxGeometry x="45" y="230" width="10" height="100" as="geometry" />
        </mxCell>
        <mxCell id="4glLAtaTAABjFDv6GbT7-155" value="task.create.user-auth" style="html=1;verticalAlign=bottom;endArrow=block;curved=0;rounded=0;entryX=0;entryY=0;entryDx=0;entryDy=0;entryPerimeter=0;" parent="1" source="4glLAtaTAABjFDv6GbT7-151" target="4glLAtaTAABjFDv6GbT7-154" edge="1">
          <mxGeometry width="80" relative="1" as="geometry">
            <mxPoint x="190" y="2040" as="sourcePoint" />
            <mxPoint x="600" y="2040" as="targetPoint" />
          </mxGeometry>
        </mxCell>
        <mxCell id="4glLAtaTAABjFDv6GbT7-156" value="consume.broker.ack" style="html=1;verticalAlign=bottom;endArrow=open;dashed=1;endSize=8;curved=0;rounded=0;exitX=0;exitY=1;exitDx=0;exitDy=0;exitPerimeter=0;" parent="1" source="4glLAtaTAABjFDv6GbT7-154" edge="1">
          <mxGeometry relative="1" as="geometry">
            <mxPoint x="655" y="2140" as="sourcePoint" />
            <mxPoint x="500" y="2140" as="targetPoint" />
          </mxGeometry>
        </mxCell>
        <mxCell id="4glLAtaTAABjFDv6GbT7-158" value="" style="endArrow=none;dashed=1;html=1;dashPattern=1 3;strokeWidth=2;rounded=0;" parent="1" source="4glLAtaTAABjFDv6GbT7-154" target="4glLAtaTAABjFDv6GbT7-265" edge="1">
          <mxGeometry width="50" height="50" relative="1" as="geometry">
            <mxPoint x="715" y="2080" as="sourcePoint" />
            <mxPoint x="670" y="2090" as="targetPoint" />
          </mxGeometry>
        </mxCell>
        <mxCell id="4glLAtaTAABjFDv6GbT7-159" value="publish.broker.ack" style="html=1;verticalAlign=bottom;endArrow=open;dashed=1;endSize=8;curved=0;rounded=0;" parent="1" target="4glLAtaTAABjFDv6GbT7-151" edge="1">
          <mxGeometry x="-0.0011" relative="1" as="geometry">
            <mxPoint x="200" y="2060" as="sourcePoint" />
            <mxPoint x="100" y="2060" as="targetPoint" />
            <Array as="points">
              <mxPoint x="160" y="2060" />
            </Array>
            <mxPoint as="offset" />
          </mxGeometry>
        </mxCell>
        <mxCell id="4glLAtaTAABjFDv6GbT7-160" value="publish.broker.ack" style="html=1;verticalAlign=bottom;endArrow=open;dashed=1;endSize=8;curved=0;rounded=0;" parent="1" target="4glLAtaTAABjFDv6GbT7-79" edge="1">
          <mxGeometry relative="1" as="geometry">
            <mxPoint x="200" y="1940" as="sourcePoint" />
            <mxPoint x="95" y="1940" as="targetPoint" />
          </mxGeometry>
        </mxCell>
        <mxCell id="4glLAtaTAABjFDv6GbT7-161" value="consume.broker.ack" style="html=1;verticalAlign=bottom;endArrow=open;dashed=1;endSize=8;curved=0;rounded=0;exitX=0;exitY=1;exitDx=0;exitDy=0;exitPerimeter=0;" parent="1" edge="1">
          <mxGeometry relative="1" as="geometry">
            <mxPoint x="85" y="2080" as="sourcePoint" />
            <mxPoint x="-20" y="2080" as="targetPoint" />
          </mxGeometry>
        </mxCell>
        <mxCell id="4glLAtaTAABjFDv6GbT7-237" value="Orchestrator-Service" style="shape=umlLifeline;perimeter=lifelinePerimeter;whiteSpace=wrap;html=1;container=1;dropTarget=0;collapsible=0;recursiveResize=0;outlineConnect=0;portConstraint=eastwest;newEdgeStyle={&quot;curved&quot;:0,&quot;rounded&quot;:0};" parent="1" vertex="1">
          <mxGeometry x="1470" y="1810" width="100" height="470" as="geometry" />
        </mxCell>
        <mxCell id="4glLAtaTAABjFDv6GbT7-238" value="" style="html=1;perimeter=orthogonalPerimeter;outlineConnect=0;targetShapes=umlLifeline;portConstraint=eastwest;newEdgeStyle={&quot;curved&quot;:0,&quot;rounded&quot;:0};points=[[0,0,0,0,0],[0,0.25,0,0,0],[0,0.5,0,0,0],[0,0.75,0,0,0],[0,1,0,0,0],[0.25,0,0,0,0],[0.25,1,0,0,0],[0.5,0,0,0,0],[0.5,1,0,0,0],[0.75,0,0,0,0],[0.75,1,0,0,0],[1,0,0,0,0],[1,0.25,0,0,0],[1,0.5,0,0,0],[1,0.75,0,0,0],[1,1,0,0,0]];" parent="4glLAtaTAABjFDv6GbT7-237" vertex="1">
          <mxGeometry x="45" y="90" width="10" height="60" as="geometry" />
        </mxCell>
        <mxCell id="4glLAtaTAABjFDv6GbT7-239" value="" style="html=1;perimeter=orthogonalPerimeter;outlineConnect=0;targetShapes=umlLifeline;portConstraint=eastwest;newEdgeStyle={&quot;curved&quot;:0,&quot;rounded&quot;:0};points=[[0,0,0,0,0],[0,0.25,0,0,0],[0,0.5,0,0,0],[0,0.75,0,0,0],[0,1,0,0,0],[0.25,0,0,0,0],[0.25,1,0,0,0],[0.5,0,0,0,0],[0.5,1,0,0,0],[0.75,0,0,0,0],[0.75,1,0,0,0],[1,0,0,0,0],[1,0.25,0,0,0],[1,0.5,0,0,0],[1,0.75,0,0,0],[1,1,0,0,0]];" parent="4glLAtaTAABjFDv6GbT7-237" vertex="1">
          <mxGeometry x="45" y="170" width="10" height="100" as="geometry" />
        </mxCell>
        <mxCell id="4glLAtaTAABjFDv6GbT7-263" value="" style="html=1;perimeter=orthogonalPerimeter;outlineConnect=0;targetShapes=umlLifeline;portConstraint=eastwest;newEdgeStyle={&quot;curved&quot;:0,&quot;rounded&quot;:0};points=[[0,0,0,0,0],[0,0.25,0,0,0],[0,0.5,0,0,0],[0,0.75,0,0,0],[0,1,0,0,0],[0.25,0,0,0,0],[0.25,1,0,0,0],[0.5,0,0,0,0],[0.5,1,0,0,0],[0.75,0,0,0,0],[0.75,1,0,0,0],[1,0,0,0,0],[1,0.25,0,0,0],[1,0.5,0,0,0],[1,0.75,0,0,0],[1,1,0,0,0]];" parent="4glLAtaTAABjFDv6GbT7-237" vertex="1">
          <mxGeometry x="45" y="310" width="10" height="80" as="geometry" />
        </mxCell>
        <mxCell id="4glLAtaTAABjFDv6GbT7-240" value="Client" style="shape=umlLifeline;perimeter=lifelinePerimeter;whiteSpace=wrap;html=1;container=1;dropTarget=0;collapsible=0;recursiveResize=0;outlineConnect=0;portConstraint=eastwest;newEdgeStyle={&quot;curved&quot;:0,&quot;rounded&quot;:0};" parent="1" vertex="1">
          <mxGeometry x="1210" y="1810" width="100" height="300" as="geometry" />
        </mxCell>
        <mxCell id="4glLAtaTAABjFDv6GbT7-241" value="" style="html=1;perimeter=orthogonalPerimeter;outlineConnect=0;targetShapes=umlLifeline;portConstraint=eastwest;newEdgeStyle={&quot;curved&quot;:0,&quot;rounded&quot;:0};" parent="4glLAtaTAABjFDv6GbT7-240" vertex="1">
          <mxGeometry x="45" y="90" width="10" height="20" as="geometry" />
        </mxCell>
        <mxCell id="4glLAtaTAABjFDv6GbT7-242" value="Unhappy Path" style="text;strokeColor=none;fillColor=none;html=1;fontSize=24;fontStyle=1;verticalAlign=middle;align=center;" parent="1" vertex="1">
          <mxGeometry x="1610" y="1734" width="100" height="40" as="geometry" />
        </mxCell>
        <mxCell id="4glLAtaTAABjFDv6GbT7-243" value="task.create-in-transaction.user" style="html=1;verticalAlign=bottom;endArrow=block;curved=0;rounded=0;entryX=0;entryY=0;entryDx=0;entryDy=0;entryPerimeter=0;exitX=1;exitY=0;exitDx=0;exitDy=0;" parent="1" source="4glLAtaTAABjFDv6GbT7-241" target="4glLAtaTAABjFDv6GbT7-238" edge="1">
          <mxGeometry width="80" relative="1" as="geometry">
            <mxPoint x="1180" y="1900" as="sourcePoint" />
            <mxPoint x="1510" y="1900" as="targetPoint" />
          </mxGeometry>
        </mxCell>
        <mxCell id="4glLAtaTAABjFDv6GbT7-244" value="task.create.user" style="html=1;verticalAlign=bottom;endArrow=block;curved=0;rounded=0;entryX=0;entryY=0;entryDx=0;entryDy=0;entryPerimeter=0;" parent="1" source="4glLAtaTAABjFDv6GbT7-238" target="4glLAtaTAABjFDv6GbT7-246" edge="1">
          <mxGeometry width="80" relative="1" as="geometry">
            <mxPoint x="1570" y="1920" as="sourcePoint" />
            <mxPoint x="1710" y="1920" as="targetPoint" />
          </mxGeometry>
        </mxCell>
        <mxCell id="4glLAtaTAABjFDv6GbT7-245" value="User-Service" style="shape=umlLifeline;perimeter=lifelinePerimeter;whiteSpace=wrap;html=1;container=1;dropTarget=0;collapsible=0;recursiveResize=0;outlineConnect=0;portConstraint=eastwest;newEdgeStyle={&quot;curved&quot;:0,&quot;rounded&quot;:0};" parent="1" vertex="1">
          <mxGeometry x="1733" y="1810" width="100" height="470" as="geometry" />
        </mxCell>
        <mxCell id="4glLAtaTAABjFDv6GbT7-246" value="" style="html=1;perimeter=orthogonalPerimeter;outlineConnect=0;targetShapes=umlLifeline;portConstraint=eastwest;newEdgeStyle={&quot;curved&quot;:0,&quot;rounded&quot;:0};points=[[0,0,0,0,0],[0,0.25,0,0,0],[0,0.5,0,0,0],[0,0.75,0,0,0],[0,1,0,0,0],[0.25,0,0,0,0],[0.25,1,0,0,0],[0.5,0,0,0,0],[0.5,1,0,0,0],[0.75,0,0,0,0],[0.75,1,0,0,0],[1,0,0,0,0],[1,0.25,0,0,0],[1,0.5,0,0,0],[1,0.75,0,0,0],[1,1,0,0,0]];" parent="4glLAtaTAABjFDv6GbT7-245" vertex="1">
          <mxGeometry x="45" y="110" width="10" height="100" as="geometry" />
        </mxCell>
        <mxCell id="4glLAtaTAABjFDv6GbT7-270" value="" style="html=1;perimeter=orthogonalPerimeter;outlineConnect=0;targetShapes=umlLifeline;portConstraint=eastwest;newEdgeStyle={&quot;curved&quot;:0,&quot;rounded&quot;:0};points=[[0,0,0,0,0],[0,0.25,0,0,0],[0,0.5,0,0,0],[0,0.75,0,0,0],[0,1,0,0,0],[0.25,0,0,0,0],[0.25,1,0,0,0],[0.5,0,0,0,0],[0.5,1,0,0,0],[0.75,0,0,0,0],[0.75,1,0,0,0],[1,0,0,0,0],[1,0.25,0,0,0],[1,0.5,0,0,0],[1,0.75,0,0,0],[1,1,0,0,0]];" parent="4glLAtaTAABjFDv6GbT7-245" vertex="1">
          <mxGeometry x="45" y="330" width="10" height="80" as="geometry" />
        </mxCell>
        <mxCell id="4glLAtaTAABjFDv6GbT7-247" value="publish.broker.ack" style="html=1;verticalAlign=bottom;endArrow=open;dashed=1;endSize=8;curved=0;rounded=0;entryX=1;entryY=1;entryDx=0;entryDy=0;" parent="1" target="4glLAtaTAABjFDv6GbT7-241" edge="1">
          <mxGeometry relative="1" as="geometry">
            <mxPoint x="1370" y="1920" as="sourcePoint" />
            <mxPoint x="1150" y="1920" as="targetPoint" />
          </mxGeometry>
        </mxCell>
        <mxCell id="4glLAtaTAABjFDv6GbT7-248" value="consume.broker.ack" style="html=1;verticalAlign=bottom;endArrow=open;dashed=1;endSize=8;curved=0;rounded=0;exitX=0;exitY=1;exitDx=0;exitDy=0;exitPerimeter=0;" parent="1" source="4glLAtaTAABjFDv6GbT7-238" edge="1">
          <mxGeometry relative="1" as="geometry">
            <mxPoint x="1520" y="1940" as="sourcePoint" />
            <mxPoint x="1410" y="1960" as="targetPoint" />
          </mxGeometry>
        </mxCell>
        <mxCell id="4glLAtaTAABjFDv6GbT7-249" value="consume.broker.ack" style="html=1;verticalAlign=bottom;endArrow=open;dashed=1;endSize=8;curved=0;rounded=0;" parent="1" source="4glLAtaTAABjFDv6GbT7-246" edge="1">
          <mxGeometry relative="1" as="geometry">
            <mxPoint x="1815" y="2020" as="sourcePoint" />
            <mxPoint x="1670" y="2020" as="targetPoint" />
          </mxGeometry>
        </mxCell>
        <mxCell id="4glLAtaTAABjFDv6GbT7-251" value="" style="endArrow=none;dashed=1;html=1;dashPattern=1 3;strokeWidth=2;rounded=0;" parent="1" source="4glLAtaTAABjFDv6GbT7-246" target="4glLAtaTAABjFDv6GbT7-266" edge="1">
          <mxGeometry width="50" height="50" relative="1" as="geometry">
            <mxPoint x="1940" y="2100" as="sourcePoint" />
            <mxPoint x="1843" y="1970" as="targetPoint" />
          </mxGeometry>
        </mxCell>
        <mxCell id="4glLAtaTAABjFDv6GbT7-252" value="event.user.creation.success" style="html=1;verticalAlign=bottom;endArrow=block;curved=0;rounded=0;entryX=1;entryY=0;entryDx=0;entryDy=0;entryPerimeter=0;" parent="1" target="4glLAtaTAABjFDv6GbT7-239" edge="1">
          <mxGeometry width="80" relative="1" as="geometry">
            <mxPoint x="1778.0000000000005" y="1980" as="sourcePoint" />
            <mxPoint x="1525" y="1980" as="targetPoint" />
          </mxGeometry>
        </mxCell>
        <mxCell id="4glLAtaTAABjFDv6GbT7-253" value="Auth-Service" style="shape=umlLifeline;perimeter=lifelinePerimeter;whiteSpace=wrap;html=1;container=1;dropTarget=0;collapsible=0;recursiveResize=0;outlineConnect=0;portConstraint=eastwest;newEdgeStyle={&quot;curved&quot;:0,&quot;rounded&quot;:0};" parent="1" vertex="1">
          <mxGeometry x="1990" y="1810" width="100" height="410" as="geometry" />
        </mxCell>
        <mxCell id="4glLAtaTAABjFDv6GbT7-254" value="" style="html=1;perimeter=orthogonalPerimeter;outlineConnect=0;targetShapes=umlLifeline;portConstraint=eastwest;newEdgeStyle={&quot;curved&quot;:0,&quot;rounded&quot;:0};points=[[0,0,0,0,0],[0,0.25,0,0,0],[0,0.5,0,0,0],[0,0.75,0,0,0],[0,1,0,0,0],[0.25,0,0,0,0],[0.25,1,0,0,0],[0.5,0,0,0,0],[0.5,1,0,0,0],[0.75,0,0,0,0],[0.75,1,0,0,0],[1,0,0,0,0],[1,0.25,0,0,0],[1,0.5,0,0,0],[1,0.75,0,0,0],[1,1,0,0,0]];" parent="4glLAtaTAABjFDv6GbT7-253" vertex="1">
          <mxGeometry x="45" y="230" width="10" height="120" as="geometry" />
        </mxCell>
        <mxCell id="4glLAtaTAABjFDv6GbT7-255" value="task.create.user-auth" style="html=1;verticalAlign=bottom;endArrow=block;curved=0;rounded=0;entryX=0;entryY=0;entryDx=0;entryDy=0;entryPerimeter=0;" parent="1" source="4glLAtaTAABjFDv6GbT7-239" target="4glLAtaTAABjFDv6GbT7-254" edge="1">
          <mxGeometry width="80" relative="1" as="geometry">
            <mxPoint x="1620" y="2040" as="sourcePoint" />
            <mxPoint x="2030" y="2040" as="targetPoint" />
          </mxGeometry>
        </mxCell>
        <mxCell id="4glLAtaTAABjFDv6GbT7-256" value="consume.broker.ack" style="html=1;verticalAlign=bottom;endArrow=open;dashed=1;endSize=8;curved=0;rounded=0;exitX=0;exitY=1;exitDx=0;exitDy=0;exitPerimeter=0;" parent="1" source="4glLAtaTAABjFDv6GbT7-254" edge="1">
          <mxGeometry relative="1" as="geometry">
            <mxPoint x="2085" y="2140" as="sourcePoint" />
            <mxPoint x="1920" y="2160" as="targetPoint" />
          </mxGeometry>
        </mxCell>
        <mxCell id="4glLAtaTAABjFDv6GbT7-258" value="" style="endArrow=none;dashed=1;html=1;dashPattern=1 3;strokeWidth=2;rounded=0;" parent="1" source="4glLAtaTAABjFDv6GbT7-254" target="4glLAtaTAABjFDv6GbT7-267" edge="1">
          <mxGeometry width="50" height="50" relative="1" as="geometry">
            <mxPoint x="2145" y="2080" as="sourcePoint" />
            <mxPoint x="2100" y="2094" as="targetPoint" />
          </mxGeometry>
        </mxCell>
        <mxCell id="4glLAtaTAABjFDv6GbT7-259" value="publish.broker.ack" style="html=1;verticalAlign=bottom;endArrow=open;dashed=1;endSize=8;curved=0;rounded=0;" parent="1" target="4glLAtaTAABjFDv6GbT7-239" edge="1">
          <mxGeometry relative="1" as="geometry">
            <mxPoint x="1630" y="2060" as="sourcePoint" />
            <mxPoint x="1540" y="2060" as="targetPoint" />
          </mxGeometry>
        </mxCell>
        <mxCell id="4glLAtaTAABjFDv6GbT7-260" value="publish.broker.ack" style="html=1;verticalAlign=bottom;endArrow=open;dashed=1;endSize=8;curved=0;rounded=0;" parent="1" target="4glLAtaTAABjFDv6GbT7-238" edge="1">
          <mxGeometry relative="1" as="geometry">
            <mxPoint x="1630" y="1940" as="sourcePoint" />
            <mxPoint x="1525" y="1940" as="targetPoint" />
          </mxGeometry>
        </mxCell>
        <mxCell id="4glLAtaTAABjFDv6GbT7-261" value="consume.broker.ack" style="html=1;verticalAlign=bottom;endArrow=open;dashed=1;endSize=8;curved=0;rounded=0;" parent="1" edge="1">
          <mxGeometry relative="1" as="geometry">
            <mxPoint x="1515" y="2080" as="sourcePoint" />
            <mxPoint x="1410" y="2080" as="targetPoint" />
          </mxGeometry>
        </mxCell>
        <mxCell id="4glLAtaTAABjFDv6GbT7-262" value="event.user-auth.creation.fail" style="html=1;verticalAlign=bottom;endArrow=block;curved=0;rounded=0;entryX=1;entryY=0;entryDx=0;entryDy=0;entryPerimeter=0;" parent="1" source="4glLAtaTAABjFDv6GbT7-254" target="4glLAtaTAABjFDv6GbT7-263" edge="1">
          <mxGeometry width="80" relative="1" as="geometry">
            <mxPoint x="2033" y="2120.0000000000005" as="sourcePoint" />
            <mxPoint x="1780" y="2120.0000000000005" as="targetPoint" />
          </mxGeometry>
        </mxCell>
        <mxCell id="4glLAtaTAABjFDv6GbT7-264" value="publish.broker.ack" style="html=1;verticalAlign=bottom;endArrow=open;dashed=1;endSize=8;curved=0;rounded=0;" parent="1" target="4glLAtaTAABjFDv6GbT7-254" edge="1">
          <mxGeometry relative="1" as="geometry">
            <mxPoint x="2150" y="2140" as="sourcePoint" />
            <mxPoint x="2050" y="2140" as="targetPoint" />
          </mxGeometry>
        </mxCell>
        <mxCell id="4glLAtaTAABjFDv6GbT7-265" value="Local Transaction&lt;div&gt;Succeeds&lt;/div&gt;" style="shape=note;size=20;whiteSpace=wrap;html=1;" parent="1" vertex="1">
          <mxGeometry x="670" y="2060" width="80" height="50" as="geometry" />
        </mxCell>
        <mxCell id="4glLAtaTAABjFDv6GbT7-266" value="Local Transaction&lt;div&gt;Succeeds&lt;/div&gt;" style="shape=note;size=20;whiteSpace=wrap;html=1;" parent="1" vertex="1">
          <mxGeometry x="1840" y="1920" width="80" height="50" as="geometry" />
        </mxCell>
        <mxCell id="4glLAtaTAABjFDv6GbT7-267" value="Local Transaction&lt;div&gt;Fails&lt;/div&gt;" style="shape=note;size=20;whiteSpace=wrap;html=1;" parent="1" vertex="1">
          <mxGeometry x="2100" y="2060" width="80" height="50" as="geometry" />
        </mxCell>
        <mxCell id="4glLAtaTAABjFDv6GbT7-268" value="" style="endArrow=classic;html=1;rounded=0;entryX=0;entryY=0;entryDx=0;entryDy=0;entryPerimeter=0;exitX=1;exitY=0.25;exitDx=0;exitDy=0;exitPerimeter=0;" parent="1" source="4glLAtaTAABjFDv6GbT7-263" target="4glLAtaTAABjFDv6GbT7-270" edge="1">
          <mxGeometry relative="1" as="geometry">
            <mxPoint x="1440" y="2270" as="sourcePoint" />
            <mxPoint x="1784" y="2301" as="targetPoint" />
          </mxGeometry>
        </mxCell>
        <mxCell id="4glLAtaTAABjFDv6GbT7-269" value="task.delete.user" style="edgeLabel;resizable=0;html=1;;align=center;verticalAlign=middle;" parent="4glLAtaTAABjFDv6GbT7-268" connectable="0" vertex="1">
          <mxGeometry relative="1" as="geometry" />
        </mxCell>
        <mxCell id="4glLAtaTAABjFDv6GbT7-271" value="consume.broker.ack" style="html=1;verticalAlign=bottom;endArrow=open;dashed=1;endSize=8;curved=0;rounded=0;exitX=0;exitY=1;exitDx=0;exitDy=0;exitPerimeter=0;" parent="1" edge="1">
          <mxGeometry relative="1" as="geometry">
            <mxPoint x="1515" y="2200" as="sourcePoint" />
            <mxPoint x="1410" y="2200" as="targetPoint" />
          </mxGeometry>
        </mxCell>
        <mxCell id="4glLAtaTAABjFDv6GbT7-272" value="publish.broker.ack" style="html=1;verticalAlign=bottom;endArrow=open;dashed=1;endSize=8;curved=0;rounded=0;entryX=1;entryY=0.75;entryDx=0;entryDy=0;entryPerimeter=0;" parent="1" target="4glLAtaTAABjFDv6GbT7-263" edge="1">
          <mxGeometry relative="1" as="geometry">
            <mxPoint x="1630" y="2180" as="sourcePoint" />
            <mxPoint x="1530" y="2180" as="targetPoint" />
          </mxGeometry>
        </mxCell>
        <mxCell id="4glLAtaTAABjFDv6GbT7-273" value="consume.broker.ack" style="html=1;verticalAlign=bottom;endArrow=open;dashed=1;endSize=8;curved=0;rounded=0;exitX=0;exitY=1;exitDx=0;exitDy=0;exitPerimeter=0;" parent="1" edge="1">
          <mxGeometry relative="1" as="geometry">
            <mxPoint x="1785" y="2220" as="sourcePoint" />
            <mxPoint x="1670" y="2220" as="targetPoint" />
          </mxGeometry>
        </mxCell>
        <mxCell id="4glLAtaTAABjFDv6GbT7-274" value="Local&lt;div&gt;Compensation Transaction&lt;/div&gt;" style="shape=note;size=20;whiteSpace=wrap;html=1;" parent="1" vertex="1">
          <mxGeometry x="1820" y="2155" width="80" height="50" as="geometry" />
        </mxCell>
        <mxCell id="4glLAtaTAABjFDv6GbT7-275" value="" style="endArrow=none;dashed=1;html=1;dashPattern=1 3;strokeWidth=2;rounded=0;" parent="1" source="4glLAtaTAABjFDv6GbT7-270" target="4glLAtaTAABjFDv6GbT7-274" edge="1">
          <mxGeometry width="50" height="50" relative="1" as="geometry">
            <mxPoint x="1820" y="2260" as="sourcePoint" />
            <mxPoint x="1872" y="2260" as="targetPoint" />
          </mxGeometry>
        </mxCell>
        <mxCell id="4glLAtaTAABjFDv6GbT7-276" value="publish.broker.ack" style="html=1;verticalAlign=bottom;endArrow=open;dashed=1;endSize=8;curved=0;rounded=0;" parent="1" edge="1">
          <mxGeometry relative="1" as="geometry">
            <mxPoint x="1890" y="2000" as="sourcePoint" />
            <mxPoint x="1788.0000000000005" y="2000" as="targetPoint" />
          </mxGeometry>
        </mxCell>
        <mxCell id="4glLAtaTAABjFDv6GbT7-277" value="publish.broker.ack" style="html=1;verticalAlign=bottom;endArrow=open;dashed=1;endSize=8;curved=0;rounded=0;" parent="1" target="4glLAtaTAABjFDv6GbT7-135" edge="1">
          <mxGeometry relative="1" as="geometry">
            <mxPoint x="466" y="2000" as="sourcePoint" />
            <mxPoint x="361" y="2000" as="targetPoint" />
          </mxGeometry>
        </mxCell>
        <mxCell id="4glLAtaTAABjFDv6GbT7-285" value="&lt;span style=&quot;font-size: 11px; text-wrap: nowrap; background-color: rgb(255, 255, 255);&quot;&gt;task.create.user-auth&lt;/span&gt;" style="swimlane;fontStyle=0;childLayout=stackLayout;horizontal=1;startSize=30;fillColor=none;horizontalStack=0;resizeParent=1;resizeParentMax=0;resizeLast=0;collapsible=1;marginBottom=0;whiteSpace=wrap;html=1;" parent="1" vertex="1">
          <mxGeometry x="600" y="600" width="140" height="134" as="geometry" />
        </mxCell>
        <mxCell id="4glLAtaTAABjFDv6GbT7-286" value="+ id: ObjectId" style="text;strokeColor=none;fillColor=none;align=left;verticalAlign=top;spacingLeft=4;spacingRight=4;overflow=hidden;rotatable=0;points=[[0,0.5],[1,0.5]];portConstraint=eastwest;whiteSpace=wrap;html=1;" parent="4glLAtaTAABjFDv6GbT7-285" vertex="1">
          <mxGeometry y="30" width="140" height="26" as="geometry" />
        </mxCell>
        <mxCell id="4glLAtaTAABjFDv6GbT7-289" value="+ email: String" style="text;strokeColor=none;fillColor=none;align=left;verticalAlign=top;spacingLeft=4;spacingRight=4;overflow=hidden;rotatable=0;points=[[0,0.5],[1,0.5]];portConstraint=eastwest;whiteSpace=wrap;html=1;" parent="4glLAtaTAABjFDv6GbT7-285" vertex="1">
          <mxGeometry y="56" width="140" height="26" as="geometry" />
        </mxCell>
        <mxCell id="4glLAtaTAABjFDv6GbT7-290" value="+ username: String" style="text;strokeColor=none;fillColor=none;align=left;verticalAlign=top;spacingLeft=4;spacingRight=4;overflow=hidden;rotatable=0;points=[[0,0.5],[1,0.5]];portConstraint=eastwest;whiteSpace=wrap;html=1;" parent="4glLAtaTAABjFDv6GbT7-285" vertex="1">
          <mxGeometry y="82" width="140" height="26" as="geometry" />
        </mxCell>
        <mxCell id="4glLAtaTAABjFDv6GbT7-291" value="+ password: String" style="text;strokeColor=none;fillColor=none;align=left;verticalAlign=top;spacingLeft=4;spacingRight=4;overflow=hidden;rotatable=0;points=[[0,0.5],[1,0.5]];portConstraint=eastwest;whiteSpace=wrap;html=1;" parent="4glLAtaTAABjFDv6GbT7-285" vertex="1">
          <mxGeometry y="108" width="140" height="26" as="geometry" />
        </mxCell>
        <mxCell id="4glLAtaTAABjFDv6GbT7-292" value="&lt;span style=&quot;font-size: 11px; text-wrap: nowrap; background-color: rgb(255, 255, 255);&quot;&gt;task.delete.user&lt;/span&gt;" style="swimlane;fontStyle=0;childLayout=stackLayout;horizontal=1;startSize=30;fillColor=none;horizontalStack=0;resizeParent=1;resizeParentMax=0;resizeLast=0;collapsible=1;marginBottom=0;whiteSpace=wrap;html=1;" parent="1" vertex="1">
          <mxGeometry x="1050" y="600" width="140" height="56" as="geometry" />
        </mxCell>
        <mxCell id="4glLAtaTAABjFDv6GbT7-293" value="+ id: ObjectId" style="text;strokeColor=none;fillColor=none;align=left;verticalAlign=top;spacingLeft=4;spacingRight=4;overflow=hidden;rotatable=0;points=[[0,0.5],[1,0.5]];portConstraint=eastwest;whiteSpace=wrap;html=1;" parent="4glLAtaTAABjFDv6GbT7-292" vertex="1">
          <mxGeometry y="30" width="140" height="26" as="geometry" />
        </mxCell>
        <mxCell id="4glLAtaTAABjFDv6GbT7-297" value="&lt;span style=&quot;font-size: 11px; text-wrap: nowrap; background-color: rgb(255, 255, 255);&quot;&gt;task.create.user&lt;/span&gt;" style="swimlane;fontStyle=0;childLayout=stackLayout;horizontal=1;startSize=30;fillColor=none;horizontalStack=0;resizeParent=1;resizeParentMax=0;resizeLast=0;collapsible=1;marginBottom=0;whiteSpace=wrap;html=1;" parent="1" vertex="1">
          <mxGeometry x="150" y="600" width="140" height="186" as="geometry" />
        </mxCell>
        <mxCell id="4glLAtaTAABjFDv6GbT7-298" value="+ id: ObjectId" style="text;strokeColor=none;fillColor=none;align=left;verticalAlign=top;spacingLeft=4;spacingRight=4;overflow=hidden;rotatable=0;points=[[0,0.5],[1,0.5]];portConstraint=eastwest;whiteSpace=wrap;html=1;" parent="4glLAtaTAABjFDv6GbT7-297" vertex="1">
          <mxGeometry y="30" width="140" height="26" as="geometry" />
        </mxCell>
        <mxCell id="4glLAtaTAABjFDv6GbT7-299" value="+ firstname: String" style="text;strokeColor=none;fillColor=none;align=left;verticalAlign=top;spacingLeft=4;spacingRight=4;overflow=hidden;rotatable=0;points=[[0,0.5],[1,0.5]];portConstraint=eastwest;whiteSpace=wrap;html=1;" parent="4glLAtaTAABjFDv6GbT7-297" vertex="1">
          <mxGeometry y="56" width="140" height="26" as="geometry" />
        </mxCell>
        <mxCell id="4glLAtaTAABjFDv6GbT7-300" value="+ lastname: String" style="text;strokeColor=none;fillColor=none;align=left;verticalAlign=top;spacingLeft=4;spacingRight=4;overflow=hidden;rotatable=0;points=[[0,0.5],[1,0.5]];portConstraint=eastwest;whiteSpace=wrap;html=1;" parent="4glLAtaTAABjFDv6GbT7-297" vertex="1">
          <mxGeometry y="82" width="140" height="26" as="geometry" />
        </mxCell>
        <mxCell id="4glLAtaTAABjFDv6GbT7-301" value="+ email: String" style="text;strokeColor=none;fillColor=none;align=left;verticalAlign=top;spacingLeft=4;spacingRight=4;overflow=hidden;rotatable=0;points=[[0,0.5],[1,0.5]];portConstraint=eastwest;whiteSpace=wrap;html=1;" parent="4glLAtaTAABjFDv6GbT7-297" vertex="1">
          <mxGeometry y="108" width="140" height="26" as="geometry" />
        </mxCell>
        <mxCell id="4glLAtaTAABjFDv6GbT7-302" value="+ username: String" style="text;strokeColor=none;fillColor=none;align=left;verticalAlign=top;spacingLeft=4;spacingRight=4;overflow=hidden;rotatable=0;points=[[0,0.5],[1,0.5]];portConstraint=eastwest;whiteSpace=wrap;html=1;" parent="4glLAtaTAABjFDv6GbT7-297" vertex="1">
          <mxGeometry y="134" width="140" height="26" as="geometry" />
        </mxCell>
        <mxCell id="4glLAtaTAABjFDv6GbT7-303" value="+ password: String" style="text;strokeColor=none;fillColor=none;align=left;verticalAlign=top;spacingLeft=4;spacingRight=4;overflow=hidden;rotatable=0;points=[[0,0.5],[1,0.5]];portConstraint=eastwest;whiteSpace=wrap;html=1;" parent="4glLAtaTAABjFDv6GbT7-297" vertex="1">
          <mxGeometry y="160" width="140" height="26" as="geometry" />
        </mxCell>
        <mxCell id="4glLAtaTAABjFDv6GbT7-304" value="&lt;span style=&quot;font-size: 11px; text-wrap: nowrap; background-color: rgb(255, 255, 255);&quot;&gt;event.user.creation.success&lt;/span&gt;" style="swimlane;fontStyle=0;childLayout=stackLayout;horizontal=1;startSize=30;fillColor=none;horizontalStack=0;resizeParent=1;resizeParentMax=0;resizeLast=0;collapsible=1;marginBottom=0;whiteSpace=wrap;html=1;" parent="1" vertex="1">
          <mxGeometry x="370" y="600" width="140" height="134" as="geometry" />
        </mxCell>
        <mxCell id="4glLAtaTAABjFDv6GbT7-305" value="+ id: ObjectId" style="text;strokeColor=none;fillColor=none;align=left;verticalAlign=top;spacingLeft=4;spacingRight=4;overflow=hidden;rotatable=0;points=[[0,0.5],[1,0.5]];portConstraint=eastwest;whiteSpace=wrap;html=1;" parent="4glLAtaTAABjFDv6GbT7-304" vertex="1">
          <mxGeometry y="30" width="140" height="26" as="geometry" />
        </mxCell>
        <mxCell id="4glLAtaTAABjFDv6GbT7-306" value="+ email: String" style="text;strokeColor=none;fillColor=none;align=left;verticalAlign=top;spacingLeft=4;spacingRight=4;overflow=hidden;rotatable=0;points=[[0,0.5],[1,0.5]];portConstraint=eastwest;whiteSpace=wrap;html=1;" parent="4glLAtaTAABjFDv6GbT7-304" vertex="1">
          <mxGeometry y="56" width="140" height="26" as="geometry" />
        </mxCell>
        <mxCell id="4glLAtaTAABjFDv6GbT7-307" value="+ username: String" style="text;strokeColor=none;fillColor=none;align=left;verticalAlign=top;spacingLeft=4;spacingRight=4;overflow=hidden;rotatable=0;points=[[0,0.5],[1,0.5]];portConstraint=eastwest;whiteSpace=wrap;html=1;" parent="4glLAtaTAABjFDv6GbT7-304" vertex="1">
          <mxGeometry y="82" width="140" height="26" as="geometry" />
        </mxCell>
        <mxCell id="4glLAtaTAABjFDv6GbT7-308" value="+ password: String" style="text;strokeColor=none;fillColor=none;align=left;verticalAlign=top;spacingLeft=4;spacingRight=4;overflow=hidden;rotatable=0;points=[[0,0.5],[1,0.5]];portConstraint=eastwest;whiteSpace=wrap;html=1;" parent="4glLAtaTAABjFDv6GbT7-304" vertex="1">
          <mxGeometry y="108" width="140" height="26" as="geometry" />
        </mxCell>
        <mxCell id="4glLAtaTAABjFDv6GbT7-309" value="&lt;span style=&quot;font-size: 11px; text-wrap: nowrap; background-color: rgb(255, 255, 255);&quot;&gt;event.user-auth.creation.fail&lt;/span&gt;" style="swimlane;fontStyle=0;childLayout=stackLayout;horizontal=1;startSize=30;fillColor=none;horizontalStack=0;resizeParent=1;resizeParentMax=0;resizeLast=0;collapsible=1;marginBottom=0;whiteSpace=wrap;html=1;" parent="1" vertex="1">
          <mxGeometry x="827" y="600" width="140" height="56" as="geometry" />
        </mxCell>
        <mxCell id="4glLAtaTAABjFDv6GbT7-310" value="+ id: ObjectId" style="text;strokeColor=none;fillColor=none;align=left;verticalAlign=top;spacingLeft=4;spacingRight=4;overflow=hidden;rotatable=0;points=[[0,0.5],[1,0.5]];portConstraint=eastwest;whiteSpace=wrap;html=1;" parent="4glLAtaTAABjFDv6GbT7-309" vertex="1">
          <mxGeometry y="30" width="140" height="26" as="geometry" />
        </mxCell>
        <mxCell id="4glLAtaTAABjFDv6GbT7-311" value="&lt;h1 style=&quot;margin-top: 0px;&quot;&gt;Note&lt;/h1&gt;&lt;p&gt;event.user.creation.success could potentially contain information generated in user-service which is required for auth-service creation.&lt;/p&gt;" style="text;html=1;whiteSpace=wrap;overflow=hidden;rounded=0;" parent="1" vertex="1">
          <mxGeometry x="630" y="445" width="180" height="140" as="geometry" />
        </mxCell>
      </root>
    </mxGraphModel>
  </diagram>
</mxfile>
